<?xml version="1.0" standalone="yes"?>
<svg xmlns="http://www.w3.org/2000/svg" width="512" height="512">

<path fill="#4961DC" opacity="1.000000" stroke="none" 
	d="
M229.048874,208.295349 
	C231.034424,207.224396 234.224930,206.574936 234.775162,205.001907 
	C236.306549,200.623932 239.363297,201.097595 242.692993,201.101593 
	C274.023987,201.139236 305.355072,201.142746 336.686035,201.092606 
	C339.570862,201.087997 341.589478,201.268723 343.339813,204.437836 
	C344.422974,206.398956 348.443024,208.092346 350.718964,207.660797 
	C353.010742,207.226227 355.083374,204.222458 356.642853,201.930069 
	C357.433990,200.767136 356.932007,198.691513 356.932465,197.028473 
	C356.944122,155.198212 356.761139,113.366859 357.006744,71.538017 
	C357.195862,39.333317 383.537445,14.702484 415.706177,16.089733 
	C443.242218,17.277203 466.592560,40.215672 468.147583,67.646225 
	C468.336090,70.971069 468.404053,74.306900 468.404480,77.637650 
	C468.417603,177.130386 468.414001,276.623108 468.417358,376.115845 
	C468.417633,384.034637 469.194763,385.288879 475.812958,388.054230 
	C475.812958,392.600403 475.812958,397.228821 475.812958,402.216736 
	C469.548187,403.379364 468.264740,407.845398 468.349457,413.606842 
	C468.506104,424.267212 468.631622,434.950562 468.126099,445.593750 
	C466.804260,473.422394 444.089294,496.227051 416.454132,497.877716 
	C387.720184,499.593994 362.500244,479.746277 357.871490,451.619324 
	C357.199921,447.538452 356.985138,443.342041 356.978424,439.198425 
	C356.914062,399.368103 356.939728,359.537628 356.939606,319.707214 
	C356.939606,318.540649 356.889404,317.371521 356.948151,316.207947 
	C357.185028,311.516327 356.305389,307.253021 351.005981,306.100586 
	C345.803589,304.969299 342.971527,308.097870 341.603119,312.875092 
	C307.419678,312.875092 273.428192,312.899963 239.437256,312.771942 
	C238.245453,312.767456 237.040726,311.268036 235.874725,310.420380 
	C233.827927,308.932373 231.806488,307.409515 229.409027,305.360718 
	C229.032837,301.178070 229.022018,297.535980 229.166000,293.609161 
	C230.945496,291.659058 232.628708,290.046356 234.184631,288.318970 
	C240.485718,281.323639 240.550171,268.863770 233.020691,262.543518 
	C233.450546,257.719055 233.697510,253.292068 234.128998,248.883133 
	C234.565231,244.425888 232.951508,241.149475 228.988754,238.577148 
	C229.011124,228.168747 229.029999,218.232056 229.048874,208.295349 
M359.059692,253.133041 
	C359.032684,250.647034 359.234863,248.132172 358.926270,245.681625 
	C358.431091,241.749588 355.996887,239.341034 352.040405,239.076797 
	C347.789612,238.792892 344.549438,241.164261 344.325623,245.194565 
	C343.999847,251.059525 344.849976,256.989777 344.629486,263.317261 
	C337.494995,273.050995 338.371002,282.543427 346.477631,291.141388 
	C355.241180,300.436157 375.507111,303.483459 389.248016,293.556458 
	C400.258820,285.601807 401.919800,271.170349 392.180054,261.735199 
	C382.806671,252.654984 371.382172,251.549332 359.059692,253.133041 
M318.454407,258.103729 
	C313.494232,258.482025 311.164154,261.245209 310.627930,266.119415 
	C310.189117,270.108063 307.636353,272.555573 303.580353,272.452972 
	C299.848480,272.358521 297.351227,270.205017 296.950500,266.290283 
	C296.463196,261.529816 294.216705,258.168091 289.227814,258.218628 
	C284.251495,258.269073 282.249023,261.626831 281.639801,266.417664 
	C281.106445,270.612000 278.221313,272.903870 273.883514,272.354156 
	C270.069702,271.870911 268.381287,269.309418 267.865814,265.513977 
	C267.183167,260.487305 263.696960,257.634369 259.527893,258.163757 
	C255.255035,258.706390 252.765106,262.153625 252.985245,267.221832 
	C253.396744,276.695801 260.919678,285.123413 270.433380,287.078888 
	C277.602386,288.552429 283.790314,286.318237 289.429016,282.392395 
	C303.896576,293.777252 323.561005,284.730835 325.502136,268.383545 
	C326.166260,262.790466 324.827698,260.432556 318.454407,258.103729 
z"/>
<path fill="#6A98F0" opacity="1.000000" stroke="none" 
	d="
M229.011215,293.893890 
	C229.022018,297.535980 229.032837,301.178070 229.046326,305.263550 
	C222.809555,307.247284 221.542175,308.908997 221.538834,316.020264 
	C221.519516,357.014526 221.443771,398.009094 221.569138,439.002960 
	C221.621140,455.998077 216.671249,470.987823 203.996887,482.565857 
	C186.508331,498.541595 166.060333,502.675140 144.276566,493.478180 
	C122.136040,484.130585 110.209747,466.421112 110.091881,442.274811 
	C109.748611,371.952942 109.951752,301.628357 109.994980,231.304855 
	C109.998215,226.047714 109.893059,221.172028 103.398476,219.547653 
	C102.705627,219.374390 102.115837,217.445908 102.063057,216.304626 
	C101.894135,212.651840 102.000328,208.986343 102.000328,204.894180 
	C109.242188,203.920258 110.294472,198.915283 110.020332,192.794022 
	C109.761253,187.008942 109.964691,181.203156 109.964691,174.953568 
	C149.276627,174.986984 186.107910,166.195740 221.529388,147.367142 
	C221.529388,149.796219 221.529343,151.503036 221.529388,153.209869 
	C221.529800,168.374420 221.556992,183.539047 221.515045,198.703476 
	C221.501648,203.543900 222.854156,207.268417 228.674561,208.200867 
	C229.029999,218.232056 229.011124,228.168747 228.586578,238.590576 
	C221.647293,239.295639 219.243011,241.714401 219.075668,248.184433 
	C219.032837,249.840256 218.895142,251.493607 218.344940,253.159790 
	C213.242203,253.103271 208.572250,252.705124 203.953445,253.031235 
	C192.047409,253.871918 180.699295,263.647125 179.952576,273.350311 
	C179.026352,285.386078 186.488358,294.863281 199.780838,298.140808 
	C210.042053,300.670898 219.838974,299.241302 229.011215,293.893890 
z"/>
<path fill="#666EB1" opacity="1.000000" stroke="none" 
	d="
M133.041351,38.371944 
	C137.580719,39.345524 141.181366,37.885933 142.739029,33.502201 
	C147.802261,19.252714 163.716431,12.863227 179.660309,17.503065 
	C189.476318,20.359632 197.334656,25.962481 202.805756,34.633244 
	C205.456635,38.834431 207.714539,43.283585 210.096420,47.524395 
	C190.755096,67.186363 167.379105,78.575142 140.426575,83.462387 
	C139.813843,81.900711 139.605560,80.764977 139.385666,79.631500 
	C136.733398,65.960938 129.867645,52.938416 133.041351,38.371944 
z"/>
<path fill="#4B5597" opacity="1.000000" stroke="none" 
	d="
M175.018295,150.040131 
	C164.069946,152.639587 153.235352,155.975250 142.150024,157.688248 
	C117.581276,161.484772 93.027039,160.490402 68.772736,154.842529 
	C64.462463,153.838837 60.070892,152.302307 56.297840,150.042007 
	C45.766766,143.733276 42.187061,131.516953 48.524837,121.049103 
	C52.376404,114.687630 58.191704,109.515099 63.124851,103.808472 
	C63.759888,104.084770 64.394920,104.361069 65.029961,104.637367 
	C65.029961,109.183235 64.986328,113.729599 65.038803,118.274857 
	C65.157593,128.564392 69.013245,133.181564 79.000710,135.121475 
	C107.284950,140.615280 135.288879,138.981049 163.511566,132.190796 
	C164.440338,133.732971 164.762070,135.029739 165.459427,136.076187 
	C168.587326,140.769745 171.822098,145.392090 175.018295,150.040131 
z"/>
<path fill="#666EB0" opacity="1.000000" stroke="none" 
	d="
M175.407806,150.035492 
	C171.822098,145.392090 168.587326,140.769745 165.459427,136.076187 
	C164.762070,135.029739 164.440338,133.732971 163.915421,132.165573 
	C185.327255,125.220840 205.699295,116.403099 223.859879,103.028931 
	C228.679916,99.479279 233.392151,95.747368 237.872787,91.781563 
	C243.970016,86.384941 244.909225,80.226326 241.098373,72.907478 
	C238.804184,68.501427 236.367294,64.169678 233.954605,59.731094 
	C243.826691,57.723061 259.274078,64.882950 264.034546,73.477654 
	C268.985077,82.415512 267.262329,93.220131 258.571960,101.697838 
	C235.032028,124.661736 207.336243,140.679840 175.407806,150.035492 
z"/>
<path fill="#4C5598" opacity="1.000000" stroke="none" 
	d="
M132.794205,38.190460 
	C129.867645,52.938416 136.733398,65.960938 139.385666,79.631500 
	C139.605560,80.764977 139.813843,81.900711 140.036621,83.434700 
	C120.617775,88.863510 101.251556,88.056717 81.973587,83.051025 
	C80.879944,82.767052 79.387680,81.288139 79.301895,80.263176 
	C78.054329,65.357162 80.008789,51.434311 91.643059,40.419170 
	C104.125145,28.601326 116.805611,27.757755 132.794205,38.190460 
z"/>
<path fill="#4961DC" opacity="1.000000" stroke="none" 
	d="
M144.836960,98.720573 
	C160.419464,94.622742 176.025864,90.380569 189.832932,81.802963 
	C199.519516,75.785217 208.585144,68.767982 218.069305,62.097782 
	C221.207016,67.789169 224.643707,74.022911 228.138580,80.362167 
	C207.084091,99.840202 182.139297,111.260841 154.241150,117.710632 
	C150.733719,111.163414 147.785339,104.941994 144.836960,98.720573 
z"/>
<path fill="#6A98F0" opacity="1.000000" stroke="none" 
	d="
M144.413727,98.715668 
	C147.785339,104.941994 150.733719,111.163414 153.841675,117.683144 
	C139.047684,122.552681 123.680450,124.092819 108.155312,123.451309 
	C98.889687,123.068443 89.666756,121.652107 80.152039,120.672272 
	C80.152039,112.792290 80.152039,105.709068 80.152039,98.146576 
	C101.472572,103.486359 122.728386,103.318375 144.413727,98.715668 
z"/>
<path fill="#C7D0FF" opacity="1.000000" stroke="none" 
	d="
M359.210388,254.034058 
	C371.382172,251.549332 382.806671,252.654984 392.180054,261.735199 
	C401.919800,271.170349 400.258820,285.601807 389.248016,293.556458 
	C375.507111,303.483459 355.241180,300.436157 346.477631,291.141388 
	C338.371002,282.543427 337.494995,273.050995 345.219910,263.277222 
	C348.346008,265.898163 351.726776,267.371857 354.582794,265.000427 
	C356.773468,263.181396 357.685913,259.761475 358.986359,256.969513 
	C359.374207,256.136932 359.152710,255.020462 359.210388,254.034058 
z"/>
<path fill="#C7D0FF" opacity="1.000000" stroke="none" 
	d="
M229.166000,293.609161 
	C219.838974,299.241302 210.042053,300.670898 199.780838,298.140808 
	C186.488358,294.863281 179.026352,285.386078 179.952576,273.350311 
	C180.699295,263.647125 192.047409,253.871918 203.953445,253.031235 
	C208.572250,252.705124 213.242203,253.103271 218.442657,253.571487 
	C219.161835,258.244843 218.540787,262.797852 223.492325,265.196686 
	C227.298462,267.040619 230.184814,265.405060 232.918793,262.948914 
	C240.550171,268.863770 240.485718,281.323639 234.184631,288.318970 
	C232.628708,290.046356 230.945496,291.659058 229.166000,293.609161 
z"/>
<path fill="#232323" opacity="1.000000" stroke="none" 
	d="
M318.838043,258.136902 
	C324.827698,260.432556 326.166260,262.790466 325.502136,268.383545 
	C323.561005,284.730835 303.896576,293.777252 289.429016,282.392395 
	C283.790314,286.318237 277.602386,288.552429 270.433380,287.078888 
	C260.919678,285.123413 253.396744,276.695801 252.985245,267.221832 
	C252.765106,262.153625 255.255035,258.706390 259.527893,258.163757 
	C263.696960,257.634369 267.183167,260.487305 267.865814,265.513977 
	C268.381287,269.309418 270.069702,271.870911 273.883514,272.354156 
	C278.221313,272.903870 281.106445,270.612000 281.639801,266.417664 
	C282.249023,261.626831 284.251495,258.269073 289.227814,258.218628 
	C294.216705,258.168091 296.463196,261.529816 296.950500,266.290283 
	C297.351227,270.205017 299.848480,272.358521 303.580353,272.452972 
	C307.636353,272.555573 310.189117,270.108063 310.627930,266.119415 
	C311.164154,261.245209 313.494232,258.482025 318.838043,258.136902 
z"/>
<path fill="#232323" opacity="1.000000" stroke="none" 
	d="
M233.020691,262.543518 
	C230.184814,265.405060 227.298462,267.040619 223.492325,265.196686 
	C218.540787,262.797852 219.161835,258.244843 218.898743,253.559784 
	C218.895142,251.493607 219.032837,249.840256 219.075668,248.184433 
	C219.243011,241.714401 221.647293,239.295639 228.583069,239.062286 
	C232.951508,241.149475 234.565231,244.425888 234.128998,248.883133 
	C233.697510,253.292068 233.450546,257.719055 233.020691,262.543518 
z"/>
<path fill="#232323" opacity="1.000000" stroke="none" 
	d="
M359.135040,253.583557 
	C359.152710,255.020462 359.374207,256.136932 358.986359,256.969513 
	C357.685913,259.761475 356.773468,263.181396 354.582794,265.000427 
	C351.726776,267.371857 348.346008,265.898163 345.504517,263.064697 
	C344.849976,256.989777 343.999847,251.059525 344.325623,245.194565 
	C344.549438,241.164261 347.789612,238.792892 352.040405,239.076797 
	C355.996887,239.341034 358.431091,241.749588 358.926270,245.681625 
	C359.234863,248.132172 359.032684,250.647034 359.135040,253.583557 
z"/>



</svg>
